HIERARCHY
ROOT ui
{
	 OFFSET 0 0 0
	 CHANNELS 3 XPosition YPosition Z Position
	 EndSite
	 {
	 OFFSET 0 -1 0
	 }
}
ROOT li
{
	 OFFSET 0 0 0
	 CHANNELS 3 XPosition YPosition Z Position
	 EndSite
	 {
	 OFFSET 0 -1 0
	 }
}
ROOT ul
{
	 OFFSET 0 0 0
	 CHANNELS 3 XPosition YPosition Z Position
	 EndSite
	 {
	 OFFSET 0 -1 0
	 }
}
ROOT ll
{
	 OFFSET 0 0 0
	 CHANNELS 3 XPosition YPosition Z Position
	 EndSite
	 {
	 OFFSET 0 -1 0
	 }
}
ROOT tt
{
	 OFFSET 0 0 0
	 CHANNELS 3 XPosition YPosition Z Position
	 EndSite
	 {
	 OFFSET 0 -1 0
	 }
}
ROOT tb
{
	 OFFSET 0 0 0
	 CHANNELS 3 XPosition YPosition Z Position
	 EndSite
	 {
	 OFFSET 0 -1 0
	 }
}
ROOT td
{
	 OFFSET 0 0 0
	 CHANNELS 3 XPosition YPosition Z Position
	 EndSite
	 {
	 OFFSET 0 -1 0
	 }
}
ROOT v
{
	 OFFSET 0 0 0
	 CHANNELS 3 XPosition YPosition Z Position
	 EndSite
	 {
	 OFFSET 0 -1 0
	 }
}
ROOT bn
{
	 OFFSET 0 0 0
	 CHANNELS 3 XPosition YPosition Z Position
	 EndSite
	 {
	 OFFSET 0 -1 0
	 }
}
MOTION
Frames: 13
Frame Time: 0.002
-8.172019720077515E-4	-0.0010709350109100342	0		0.49267596435546873	-2.557738525390625	0		-0.832579345703125	0.3832371520996094	0		-0.5303923950195313	-2.737330322265625	0		1.4011904296875	-0.5457540893554688	0		3.0020859375	-0.6536300659179688	0		4.25057763671875	-0.6165634155273437	0		5.77439501953125	0.2544819641113281	0		-0.19774398803710938	5.91949609375	0		
-0.006399517059326172	0.011684250831604005	0		0.4710659484863281	-2.5478037109375	0		-0.8282634887695313	0.38687973022460936	0		-0.5367574462890625	-2.705566162109375	0		1.440505859375	-0.5424979248046875	0		3.00311376953125	-0.6759451904296875	0		4.25085107421875	-0.616866455078125	0		5.7746669921875	0.2541817779541016	0		-0.21260464477539062	5.9083525390625	0		
-3.114640116691589E-4	-0.0016585240364074708	0		0.5002889709472657	-2.549403564453125	0		-0.83207470703125	0.3826471862792969	0		-0.5304547729492187	-2.69991064453125	0		1.363755859375	-0.5409140014648437	0		3.014615234375	-0.6523431396484375	0		4.247029296875	-0.622093994140625	0		5.77489990234375	0.2539107666015625	0		-0.2123768768310547	5.90807568359375	0		
-1.1944899708032609E-4	-0.0018973530530929565	0		0.5004815063476562	-2.54964208984375	0		-0.8318827514648437	0.382408203125	0		-0.5069958190917969	-2.67640771484375	0		1.5428475341796875	-0.5511494750976562	0		2.988741943359375	-0.6582908325195312	0		4.244166015625	-0.6272981567382813	0		5.775091796875	0.2536731109619141	0		-0.17909884643554688	5.91546826171875	0		
-0.009870038032531739	0.007015549182891846	0		0.49577420043945314	-2.53678564453125	0		-0.8367786254882813	0.37826644897460937	0		-0.5983964233398438	-2.635581298828125	0		1.349041259765625	-0.5461835327148438	0		2.97594677734375	-0.653345458984375	0		4.23231494140625	-0.6273641357421875	0		5.7670400390625	0.2355630340576172	0		-0.21302409362792968	5.90864990234375	0		
1.321759968996048E-4	-0.002250320911407471	0		0.48186492919921875	-2.537784423828125	0		-0.8275862426757813	0.38601141357421875	0		-0.58414013671875	-2.621892822265625	0		1.35217724609375	-0.5433732299804688	0		2.99684716796875	-0.6717361450195313	0		4.23241748046875	-0.627522705078125	0		5.772232421875	0.24334678649902344	0		-0.17688433837890624	5.91109326171875	0		
0.004234210014343261	0.0015954409837722779	0		0.4981861572265625	-2.514074462890625	0		-0.8224837646484375	0.38984710693359376	0		-0.5709192504882813	-2.6071474609375	0		1.344413330078125	-0.52739599609375	0		2.98626171875	-0.6397285766601563	0		4.235541015625	-0.62167138671875	0		5.77229052734375	0.24322994995117186	0		-0.19673965454101563	5.91820703125	0		
-0.009697154998779297	0.006689355850219726	0		0.4961604309082031	-2.517114990234375	0		-0.8275155029296875	0.3858424987792969	0		-0.527858642578125	-2.60268896484375	0		1.5233238525390624	-0.5374580688476562	0		2.97806103515625	-0.6587052612304688	0		4.22351953125	-0.6246065673828125	0		5.7672138671875	0.23521434020996093	0		-0.2128170623779297	5.90932470703125	0		
1.6829100251197814E-4	-0.002435180902481079	0		0.49612158203125	-2.51712939453125	0		-0.8275481567382813	0.385830810546875	0		-0.5897374877929688	-2.588009765625	0		1.32644677734375	-0.5222760620117187	0		2.97616015625	-0.6467035522460938	0		4.225328125	-0.6386505126953125	0		5.76718115234375	0.23518850708007813	0		-0.2128378448486328	5.9093115234375	0		
9.035299718379974E-5	-0.002399266004562378	0		0.49807061767578126	-2.514117431640625	0		-0.8316694946289063	0.38191375732421873	0		-0.5247255859375	-2.579698974609375	0		1.512199462890625	-0.5383198852539063	0		2.98691259765625	-0.661797119140625	0		4.22524853515625	-0.6386253662109375	0		5.767103515625	0.23520973205566406	0		-0.17883583068847655	5.9149677734375	0		
-0.009929295539855956	0.0067977972030639645	0		0.47402227783203127	-2.50676513671875	0		-0.8277448120117188	0.3859571533203125	0		-0.5826491088867187	-2.560964599609375	0		1.32320068359375	-0.5261276245117188	0		2.98205810546875	-0.6376654052734375	0		4.22919287109375	-0.6325966796875	0		5.7630732421875	0.24332325744628908	0		-0.21301571655273438	5.9084345703125	0		
0.0038525989055633544	0.0017780640125274658	0		0.5048734741210937	-2.504976806640625	0		-0.822860595703125	0.39003997802734375	0		-0.5496641235351563	-2.547196044921875	0		1.5040933837890624	-0.522018310546875	0		2.96269482421875	-0.655324951171875	0		4.229029296875	-0.6324735107421875	0		5.771912109375	0.2433410186767578	0		-0.19803663635253907	5.9194033203125	0		
-3.908259868621826E-4	-0.001990277051925659	0		0.4957562255859375	-2.496691650390625	0		-0.8281026611328125	0.3862855224609375	0		-0.5787691040039062	-2.53768408203125	0		1.4978035888671875	-0.5297689819335938	0		3.005546875	-0.6506289672851563	0		4.22476123046875	-0.6382556762695313	0		5.7717138671875	0.24350869750976561	0		-0.21333808898925782	5.90875927734375	0		
